<svg xmlns="http://www.w3.org/2000/svg" width="525" height="238" viewBox="0 0 525 238"><rect width="100%" height="100%" fill="#DDDDDD"/><path fill="#999999" d="M100.635 110.675h3.13v2.85h1.96v2.2h-1.96v5.92q0 .67.28.96.28.29.76.29.24 0 .42-.02.18-.03.41-.09l.27 2.26q-.47.16-.92.25-.45.08-.98.08-1.62 0-2.5-.9-.87-.89-.87-2.82v-5.93h-1.7v-2.2h1.7v-2.85Zm10.15-2.29v6.61q.55-.8 1.34-1.24.8-.45 1.76-.45 1.82 0 2.86 1.21 1.03 1.21 1.03 3.73v6.9h-3.13v-6.92q0-1.35-.48-1.92-.48-.56-1.43-.56-.64 0-1.13.23-.5.23-.82.65v8.52h-3.14v-16.76h3.14Zm12.65 5.14v11.62h-3.13v-11.62h3.13Zm0-5.14v2.35h-3.13v-2.35h3.13Zm8.87 13.56q0-.52-.5-.89-.5-.38-1.86-.67-2.06-.42-3.11-1.24-1.04-.82-1.04-2.24 0-1.5 1.26-2.55 1.26-1.05 3.38-1.05 2.22 0 3.54 1.04 1.31 1.05 1.26 2.64l-.02.06h-3.03q0-.7-.45-1.14-.44-.44-1.3-.44-.77 0-1.2.37-.44.37-.44.93 0 .54.46.88.46.35 1.85.61 2.15.43 3.19 1.27 1.05.83 1.05 2.29 0 1.57-1.35 2.56-1.34 1-3.54 1-2.32 0-3.67-1.18t-1.28-2.68l.02-.07h2.87q.03.94.61 1.36.58.42 1.51.42.87 0 1.33-.35.46-.34.46-.93Zm13.83-8.42v11.62h-3.13v-11.62h3.13Zm0-5.14v2.35h-3.13v-2.35h3.13Zm8.86 13.56q0-.52-.5-.89-.49-.38-1.85-.67-2.06-.42-3.11-1.24-1.05-.82-1.05-2.24 0-1.5 1.27-2.55 1.26-1.05 3.38-1.05 2.22 0 3.53 1.04 1.32 1.05 1.27 2.64l-.02.06h-3.03q0-.7-.45-1.14-.45-.44-1.3-.44-.77 0-1.2.37-.44.37-.44.93 0 .54.46.88.46.35 1.85.61 2.15.43 3.19 1.27 1.04.83 1.04 2.29 0 1.57-1.34 2.56-1.34 1-3.54 1-2.32 0-3.67-1.18t-1.29-2.68l.03-.07h2.86q.04.94.62 1.36.58.42 1.51.42.87 0 1.33-.35.45-.34.45-.93Zm20.5 3.2h-3.14q-.17-.4-.29-.84-.13-.44-.18-.9-.48.85-1.27 1.41-.79.56-1.89.56-1.82 0-2.81-.94t-.99-2.57q0-1.7 1.32-2.64 1.31-.94 3.84-.94h1.75v-.93q0-.84-.44-1.3-.44-.46-1.3-.46-.77 0-1.18.37-.41.37-.41 1.03l-3.03-.01-.01-.07q-.08-1.47 1.28-2.54 1.35-1.07 3.55-1.07 2.09 0 3.39 1.06 1.29 1.06 1.29 3.01v4.81q0 .81.13 1.53.12.72.39 1.43Zm-6-2.09q.82 0 1.47-.41.64-.41.87-.95v-1.64h-1.75q-1 0-1.52.5-.51.5-.51 1.21 0 .58.38.93.39.36 1.06.36Zm23.82-3.62v.22q0 2.58-1.19 4.15-1.19 1.57-3.33 1.57-.91 0-1.62-.34-.71-.34-1.22-1v5.58h-3.12v-16.09h2.82l.19 1.37q.51-.76 1.24-1.17.72-.42 1.69-.42 2.16 0 3.35 1.69t1.19 4.44Zm-3.13.22v-.22q0-1.65-.55-2.67t-1.68-1.02q-.71 0-1.21.29t-.79.83v5.09q.29.49.79.75t1.23.26q1.14 0 1.67-.89.54-.89.54-2.42Zm8.36-11.27v16.76h-3.13v-16.76h3.13Zm12.54 16.76h-3.14q-.17-.4-.29-.84-.13-.44-.18-.9-.48.85-1.27 1.41-.79.56-1.89.56-1.82 0-2.81-.94t-.99-2.57q0-1.7 1.31-2.64 1.32-.94 3.85-.94h1.75v-.93q0-.84-.44-1.3-.44-.46-1.3-.46-.77 0-1.18.37-.41.37-.41 1.03l-3.03-.01-.01-.07q-.08-1.47 1.27-2.54 1.36-1.07 3.56-1.07 2.08 0 3.38 1.06 1.3 1.06 1.3 3.01v4.81q0 .81.13 1.53.12.72.39 1.43Zm-6.01-2.09q.83 0 1.48-.41.64-.41.87-.95v-1.64h-1.75q-1 0-1.52.5t-.52 1.21q0 .58.39.93.39.36 1.05.36Zm12.74-.09q.84 0 1.35-.49.5-.49.5-1.3h2.85l.03.06q.04 1.76-1.33 2.95-1.37 1.19-3.4 1.19-2.59 0-4-1.65-1.41-1.64-1.41-4.22v-.32q0-2.57 1.4-4.22 1.4-1.66 4-1.66 2.15 0 3.47 1.23 1.31 1.22 1.27 3.22l-.02.06h-2.86q0-.9-.49-1.49-.5-.6-1.37-.6-1.24 0-1.75.97-.51.96-.51 2.49v.32q0 1.56.51 2.51.51.95 1.76.95Zm11.66 2.41q-2.51 0-4.02-1.62-1.5-1.61-1.5-4.09v-.43q0-2.59 1.42-4.26 1.43-1.68 3.82-1.67 2.35 0 3.65 1.42 1.3 1.42 1.3 3.84v1.7h-6.94l-.02.07q.09 1.15.77 1.89t1.85.74q1.04 0 1.73-.21t1.51-.66l.84 1.93q-.7.58-1.85.96-1.15.39-2.56.39Zm-.28-9.65q-.87 0-1.37.67-.51.66-.63 1.75l.03.05h3.85v-.28q0-1-.47-1.59-.46-.6-1.41-.6Zm9.84-7.34v6.61q.55-.8 1.34-1.24.8-.45 1.76-.45 1.82 0 2.86 1.21 1.03 1.21 1.03 3.73v6.9h-3.13v-6.92q0-1.35-.48-1.92-.48-.56-1.42-.56-.65 0-1.14.23-.5.23-.82.65v8.52h-3.14v-16.76h3.14Zm8.87 11.07v-.23q0-2.6 1.45-4.26 1.45-1.66 4.02-1.66 2.58 0 4.04 1.66 1.46 1.65 1.46 4.26v.23q0 2.62-1.45 4.27-1.46 1.65-4.03 1.65-2.58 0-4.03-1.65-1.46-1.65-1.46-4.27Zm3.13-.23v.23q0 1.59.56 2.55.56.96 1.8.96 1.22 0 1.78-.97.56-.96.56-2.54v-.23q0-1.55-.56-2.52-.57-.98-1.8-.98-1.21 0-1.78.98-.56.98-.56 2.52Zm13.07-10.84v16.76h-3.13v-16.76h3.13Zm2.1 11.27v-.22q0-2.75 1.18-4.44 1.19-1.69 3.35-1.69.87 0 1.57.38.7.37 1.22 1.07v-6.37h3.15v16.76h-2.7l-.25-1.42q-.55.81-1.3 1.23-.74.42-1.71.42-2.14 0-3.33-1.57-1.18-1.57-1.18-4.15Zm3.12-.22v.22q0 1.53.52 2.4.51.88 1.67.88.68 0 1.19-.28.5-.27.82-.8v-4.95q-.32-.55-.82-.85-.5-.31-1.16-.31-1.15 0-1.68 1.02-.54 1.02-.54 2.67Zm14.92 5.94q-2.51 0-4.01-1.62-1.51-1.61-1.51-4.09v-.43q0-2.59 1.43-4.26 1.42-1.68 3.82-1.67 2.35 0 3.65 1.42 1.3 1.42 1.3 3.84v1.7h-6.94l-.02.07q.08 1.15.76 1.89.69.74 1.86.74 1.04 0 1.73-.21.68-.21 1.5-.66l.85 1.93q-.71.58-1.86.96-1.15.39-2.56.39Zm-.27-9.65q-.88 0-1.38.67-.5.66-.62 1.75l.03.05h3.84v-.28q0-1-.46-1.59-.47-.6-1.41-.6Zm13.22-2.29-.33 2.78-1.15-.03q-.7 0-1.15.29-.45.29-.69.82v7.85h-3.13v-11.62h2.91l.14 1.72q.41-.92 1.06-1.43.65-.51 1.5-.51.24 0 .44.04.19.04.4.09Zm10.69 11.71h-3.14v-9.42h-1.73v-2.2h1.73v-1.29q0-1.96 1.13-3.02 1.13-1.05 3.17-1.05.39 0 .81.06.41.05.91.16l-.27 2.33q-.26-.04-.5-.07-.24-.03-.57-.03-.76 0-1.15.41-.39.42-.39 1.21v1.29h2.31v2.2h-2.31v9.42Zm3.42-5.69v-.23q0-2.6 1.45-4.26 1.45-1.66 4.02-1.66 2.58 0 4.04 1.66 1.46 1.65 1.46 4.26v.23q0 2.62-1.45 4.27-1.46 1.65-4.03 1.65-2.57 0-4.03-1.65-1.46-1.65-1.46-4.27Zm3.13-.23v.23q0 1.59.56 2.55.56.96 1.8.96 1.22 0 1.78-.97.57-.96.57-2.54v-.23q0-1.55-.57-2.52-.57-.98-1.8-.98-1.21 0-1.78.98-.56.98-.56 2.52Zm16.22-5.79-.33 2.78-1.15-.03q-.7 0-1.15.29-.45.29-.69.82v7.85h-3.12v-11.62h2.91l.14 1.72q.4-.92 1.05-1.43.65-.51 1.5-.51.24 0 .44.04t.4.09Zm16.69 11.71h-3.13q-.17-.4-.3-.84-.12-.44-.18-.9-.48.85-1.27 1.41-.79.56-1.88.56-1.83 0-2.82-.94-.99-.94-.99-2.57 0-1.7 1.32-2.64 1.32-.94 3.84-.94h1.75v-.93q0-.84-.44-1.3-.44-.46-1.3-.46-.76 0-1.18.37-.41.37-.41 1.03l-3.03-.01-.01-.07q-.07-1.47 1.28-2.54t3.55-1.07q2.09 0 3.39 1.06 1.3 1.06 1.3 3.01v4.81q0 .81.12 1.53.13.72.39 1.43Zm-6-2.09q.83 0 1.47-.41.65-.41.87-.95v-1.64h-1.75q-1 0-1.51.5-.52.5-.52 1.21 0 .58.39.93.38.36 1.05.36Zm7.81-9.53h2.92l.14 1.66q.58-.89 1.43-1.38.85-.5 1.9-.5 1.76 0 2.75 1.11.99 1.1.99 3.47v7.26h-3.15v-7.25q0-1.17-.47-1.66t-1.43-.49q-.62 0-1.12.25-.49.26-.82.72v8.43h-3.14v-11.62Zm21.25 0v11.62h-3.14v-11.62h3.14Zm0-5.14v2.35h-3.14v-2.35h3.14Zm2.57 5.14h2.92l.12 1.53q.56-.83 1.41-1.29.84-.46 1.95-.46 1.11 0 1.91.5.79.49 1.2 1.49.54-.94 1.4-1.46.86-.53 2.02-.53 1.72 0 2.71 1.19t.99 3.61v7.04h-3.13v-7.05q0-1.32-.43-1.83-.43-.52-1.28-.52-.67 0-1.16.3-.48.29-.77.82 0 .2.01.35.01.14.01.29v7.64h-3.13v-7.05q0-1.29-.43-1.82t-1.29-.53q-.63 0-1.11.24-.48.24-.79.68v8.48h-3.13v-11.62Zm29 11.62h-3.14q-.17-.4-.29-.84-.13-.44-.18-.9-.48.85-1.27 1.41-.79.56-1.89.56-1.83 0-2.81-.94-.99-.94-.99-2.57 0-1.7 1.31-2.64 1.32-.94 3.84-.94h1.75v-.93q0-.84-.44-1.3-.44-.46-1.3-.46-.76 0-1.17.37-.42.37-.42 1.03l-3.02-.01-.02-.07q-.07-1.47 1.28-2.54 1.36-1.07 3.56-1.07 2.08 0 3.38 1.06 1.3 1.06 1.3 3.01v4.81q0 .81.13 1.53.12.72.39 1.43Zm-6.01-2.09q.83 0 1.47-.41.65-.41.87-.95v-1.64h-1.75q-1 0-1.51.5-.52.5-.52 1.21 0 .58.39.93.39.36 1.05.36Zm7.38-3.4v-.22q0-2.75 1.2-4.44 1.2-1.69 3.36-1.69.98 0 1.72.44t1.26 1.26l.25-1.48h2.71v11.57q0 2.26-1.49 3.5-1.49 1.24-4.14 1.24-.88 0-1.87-.24-.99-.24-1.83-.66l.58-2.34q.72.34 1.47.52t1.63.18q1.29 0 1.89-.54.61-.54.61-1.67v-1.06q-.51.66-1.21 1-.7.35-1.6.35-2.14 0-3.34-1.58-1.2-1.57-1.2-4.14Zm3.14-.22v.22q0 1.53.52 2.4.51.88 1.67.88.72 0 1.22-.27.5-.26.8-.76v-5.05q-.3-.53-.8-.82-.5-.29-1.2-.29-1.15 0-1.68 1.02t-.53 2.67Zm14.91 5.94q-2.51 0-4.02-1.62-1.5-1.61-1.5-4.09v-.43q0-2.59 1.42-4.26 1.43-1.68 3.82-1.67 2.35 0 3.65 1.42 1.3 1.42 1.3 3.84v1.7h-6.94l-.02.07q.09 1.15.77 1.89t1.85.74q1.04 0 1.73-.21t1.51-.66l.84 1.93q-.7.58-1.85.96-1.15.39-2.56.39Zm-.28-9.65q-.87 0-1.37.67-.51.66-.63 1.75l.03.05h3.85v-.28q0-1-.47-1.59-.46-.6-1.41-.6Z"/></svg>